# xmcd
#
# Track frame offsets:
# 150
# 19039
# 35860
# 53956
# 72219
# 88507
# 105262
# 123106
# 141113
# 157270
# 173857
# 191907
# 210234
#
# Disc length: 3006 seconds
#
#
# Revision: 1
# Processed by: cddbd v1.4PL0 Copyright (c) Steve Scherf et al.
# Submitted via: FreeRIP 2.30 
#
DISCID=b10bbc0d
DTITLE=Slow Pain - Raider 4 Life
DYEAR=2003
DGENRE=Chicano Rap
TTITLE0=Raider 4 Life
TTITLE1=Let Me Know
TTITLE2=Big Things
TTITLE3=Hoodz Hott
TTITLE4=California
TTITLE5=The Life
TTITLE6=I Want You
TTITLE7=The Southside
TTITLE8=Just Another Fantasy
TTITLE9=L.A.
TTITLE10=On The Streets
TTITLE11=Dos Caras
TTITLE12=Still Saturday Night Ballin'
EXTD=
EXTT0=
EXTT1=
EXTT2=
EXTT3=
EXTT4=
EXTT5=
EXTT6=
EXTT7=
EXTT8=
EXTT9=
EXTT10=
EXTT11=
EXTT12=
PLAYORDER=
